<?xml version="1.0" encoding="utf-8"?>
<!-- Generator: Adobe Illustrator 25.2.1, SVG Export Plug-In . SVG Version: 6.00 Build 0)  -->
<svg version="1.1" id="Layer_1" xmlns="http://www.w3.org/2000/svg" xmlns:xlink="http://www.w3.org/1999/xlink" x="0px" y="0px"
	 viewBox="0 0 1024.16 300" style="enable-background:new 0 0 1024.16 300;" xml:space="preserve">
<style type="text/css">
	.st0{fill:#FFFFFF;}
</style>
<path class="st0" d="M244.22,118.26c2.14,1.78,5.17-0.28,6.41-1.83l-1.96-102.9l-2.03,0.84c-15.49,6.54-35.22,11.74-48.92,22.2
	c-3.67,2.92-9.49,8.95-13.2,11.94c-2.29,1.3-3.55,4.68-5.78,3.42c-5.75-1.83-3.64,2.61-12.48-1.74c-2.46-0.54-3.91,0.4-5.44,1.17
	c-1.26,0.63-4.35,1.33-5.37,1.56c-2.43,0.55-3.56,1.95-5.13,4.2c-0.22,0.31-0.27,0.39-1.63-0.09c-3.99-2.33-7.16,2.63-10.66,3.45
	c-5.44-1.59-4.62-7.34-9.48-6.5l-1.04-1.84c0.38-1.08,0.57-2.52,0.03-3.79c-1.57-0.2-3.15-0.71-4.83-0.35
	c-0.58-0.56-1.17-1.73-1.39-2.51l-0.3,0.2c-0.83-1.84-3.8-0.67-5.51,0.34l1.18,1.38c-0.05,0.31-0.43,1.11-2.39,3
	c-3.68-0.69-5.64-5.9-9.29-7.06c-1.96-1.45-4.33-1.74-6.58-2.27c-0.27-1.84-2.22-2.52-3.71-2.92c0.01-0.55-0.42-1.08-0.77-1.5
	c-1.38,0.23-2.89-2.27-3.71-2.99l-0.26,3.28c-0.49,0.18-1.73,0.11-2.69-0.09l0.69-2.96l-1.46,0.87l-0.33-0.13l0.14-2.58
	c-0.07,0.04-2.46,1.56-2.53,1.59c-0.55-0.9-74.14,2.15-74.86,1.87L2.95,232.46c2.01-0.16,5.22-0.51,6.44-3.05
	c0.22,0.45,0.45,0.85,0.68,1.23v0.1h0.05c3.81,6.16,9.32,3.93,15,1.22c-0.1,7.73,6.06,3.86,7.48,7.33c0.27,4.49,2.27,7.47,3.93,8.69
	c0.24,1.78-0.92,4.61,0.42,6.12c1.44,1.79,8.93,4.19,11.43,3.94c1.89-0.17,4.34-0.95,5.96-0.15c4.97,1.19,4.3,4.12,7.82,5.6
	c-0.08,3.89,5.65,6.21,8.88,6.16c2.57-0.42,2.6-3.3,3.22-5.16c1.48-0.12,3.15,0.29,4.62-0.46c2.21,1.51,6.49,3.03,9.15,3.97
	c1.23,1.12,1.46,4.24,3.71,4.23c2.17-0.01,2.6-2.65,4.77-1.69c2.6,0.94,6.09,0.03,6.8-2.94c1.16-2.27,3.71-3.21,4.95-5.16
	c2.01,1.5,4.7-1.11,6.96-1.63c-0.85,1.76,0.23,3.01-0.07,4.98c-0.93,3.96,1.63,8.71,7.29,9.59c2.58,0.29,2.77,0.57,3.65,1.92
	c0.71,1.4,2.38,2.62,3.46,2.92c2.93,1.24-1.46,6.36,5.46,6.21c3.45,0.38,7.27-1.82,10.8-2.37c4.37-0.59,4.9-3.74,5.51-7.38
	c0.64-3.81,0.8-4.22,1.86-4.88c4.07,1.29,6.22-0.99,4.63-5.98c-0.93-2.95,0.02-7.36-2.08-9.98c3.63-0.5,5.11-3.6,4.02-6.54
	c0.85-1.97,3.65-7.12,5.3-7.38c0.14-0.68,0.39-1.58,0.72-2.14c1.69,4.34,4.43,0.65,4.9,5.77c-5.08,5.01,4.59,8.51,6.53,1.18
	c4.56,1.55,5.02-0.89,3.89-4.65c1.31-2.05-0.6-4.55-1.82-6.13c7.16-2.25,0.71-8.69,4.42-10.78c4.63-3.04-2.33-5.39,9.03-3.34
	c-0.74-7.32,1.69-7.27,5.4-11.05c1.91,1.44,0.54,5.22,4.4,5.61c3.92-0.76,3.88-5.87,9.6-3.84c0.83-1.85,1.73-2.89,2.68-5.1
	c4.33,2.49,2.3-2.42,6.1-6.33c5.73-7.55,11.29-3.41,11.49-12.09c0.01-0.55,0.19-0.89,0.57-1.16c1.8-0.88,0.48-3.78-0.43-5.42
	c2.91-0.43,1.56-4.82,2.43-6.44c0.62-0.61,1.64-1.86,1.48-3.28c1.44-0.46,2.05-1.08,1.61-3.08c1.42-3.5,2.16-7.46,1.1-10.82
	c2.9-1.29,1.17-3.46,1.87-5.77c0.94-2.26,2.34-3.38,2.35-6.17c2.94-0.92,2.23-2.75,3.09-4.91c0.59-1.43,0.75-2.4-0.13-3.43
	c-0.33-0.96-0.26-3.4-0.96-3.99c0.21-0.86,0.17-1.54,0.72-3.77C247.97,128.37,240.66,119.75,244.22,118.26z M247.61,115.17
	c-0.46,0.39-0.95,0.72-1.21,0.81c-0.34-0.16-0.58-0.33-1-0.49l2.18-1.75L247.61,115.17z M125.71,54.21l1.78,0.53l0,0.26
	c-1.16-0.06-1.64-0.64-2.94-0.88C125.06,54.03,125.19,54.05,125.71,54.21z M151.16,60.17c1.92-0.81,3.33-4.5,4.96-4.32
	c3.75-0.34,6.2-2.69,9.48-2.73c3.5,1.62,7.41,3,11.12,1.25c1.5,0.48,2.87,1.53,4.87,0.6l-61.03,160.5h-0.25L151.16,60.17z
	 M123.17,54.38c-0.19,0.1-0.36,0.2-0.49,0.29c-0.08-0.08-0.19-0.19-0.28-0.28C122.64,54.4,122.89,54.4,123.17,54.38z M118.96,51.23
	l0.8,0.23c-0.68,0.19-1.14,0.61-1.83,0.47L118.96,51.23z M116.29,58.08c1.15-1.05,2.6-0.51,3.76-1.81c0.42,0.45,0.9,1.01,1.72,1.31
	l-1.58,156.87l-10.4-156.28C111.61,59.19,114.42,59.99,116.29,58.08z M113.13,55.64c0.3-0.24,0.51-0.47,0.76-0.71
	c0.3,0.07,0.62,0.34,0.98,0.47c-0.81,0.52-1.37,1.31-2.34,0.69C112.73,55.95,112.93,55.8,113.13,55.64z M111.94,52.64
	c-0.67,0.7-1.58,1.4-2.42,1.57l-0.22-3.24C110.15,51.63,111.03,52.18,111.94,52.64z M73.97,36.61l1.99,7.73l-3.03,2.47l3.47-0.79
	l43.72,169.44h-0.07L54.25,37.19L73.97,36.61z M11.87,38.43l1.95-0.06l106.07,177.1h-0.15L10.45,85.05L11.87,38.43z M9.23,124.98
	l110.27,90.49c-0.35,0.38-110.79-63.43-111.09-63.4L9.23,124.98z M6.47,215.47l1.17-38.42l110.77,38.42H6.47z M235.06,169.62
	c-2.14-0.04-2.08,2.13-1.59,3.42c-1.38,1.79-1.99,2.49-1.91,6.55c-3.38,0.21-2.26,3.51-0.77,6.2c-1.64,0.86-1.26,5.01-2.07,6.46
	c-4.64,0.72-11.65,7.42-13.19,12.16c-2.91-1.45-3.86,3.26-5.03,4.82c-3.49-0.85-5.77,1.81-7.98,4.02c-0.34-3.27-3.79-7.81-6.97-4.18
	c-0.97,1.62-5.11,3.38-5.44,6.39h-68.22l113.23-46.57C235.07,169.13,235.05,169.38,235.06,169.62z M243.21,130.05
	c-0.31,1.21-0.5,2.4-0.6,3.05l-2.62,2.62l2.83,0.39c0.04,0.04,0.1,0.14,0.15,0.27L121.3,215.47h-0.19l119.02-95.73
	C239.61,122.16,244.05,128.46,243.21,130.05z M120.85,215.47h-0.15L240.28,20.19c1.95-0.78,4.01-1.61,5.47-2.21l0.96,50.26
	L120.85,215.47z"/>
<g>
	<path class="st0" d="M355.3,158.19c6.08-11.79,4.76-29.62-5.73-37.77c-10.51-10.73-36.59-7.45-51.01-7.9v92.73h14.9v-32.23
		c0.89,0,14.44,0,14.9,0l20.89,32.23h17.2l-22.55-35.79C349.08,166.83,352.88,163.08,355.3,158.19z M339.63,153.86
		c-4.29,6.58-18.85,4.66-26.18,4.9v-31.97c6.01,0.35,18.75-1.36,23.44,2.61C344.93,134.97,345.73,146.67,339.63,153.86z"/>
	<path class="st0" d="M413.7,158.64c-14.44-20.97-49.2-5.19-46.75,19.74c-2.34,25.49,31.16,38.07,46.62,19.11v7.77h14.27v-53.88
		h-13.12L413.7,158.64z M386.06,165.45c7.92-8.63,24.34-4.96,27.51,6.31c0,0,0,11.72,0,11.72
		C404.23,210.04,367.79,185.16,386.06,165.45z"/>
	<path class="st0" d="M481.34,157.24c-16.26-17.98-49.93-5.03-47.76,20.25c-2.03,26.08,30.23,38.84,47.64,20.51v7.26h14.27V105.9
		h-14.14V157.24z M481.21,182.97c-8.16,23.57-43.11,7.1-30.95-14.46c6.55-12.39,27.12-10.31,30.95,3
		C481.21,171.5,481.21,182.97,481.21,182.97z"/>
	<path class="st0" d="M547,152.72c-34.7-18.49-65.62,29.54-31.27,50.44C550.47,220.76,580.32,174.29,547,152.72z M542.29,190.1
		c-15.83,15.88-36.28-9.35-22.35-24.39C535.89,149.27,556.08,175.24,542.29,190.1z"/>
	<path class="st0" d="M614.38,153.61c-9.86-8.72-28.18-4.31-33.82,7.32l-1.02-9.55h-12.86v53.88h14.27c0.71-9.5-2.5-30.97,4.27-38.4
		c3.77-5.67,12.86-7.81,17.58-3.12c4.76,3.24,1.64,36.56,2.48,41.53h14.27C618.06,196.05,623.81,159.71,614.38,153.61z"/>
	<path class="st0" d="M673.99,126.73c-6.85-7.07-19.3,3.89-11.27,10.76C669.68,144.35,681.84,133.8,673.99,126.73z"/>
	<rect x="660.81" y="151.38" class="st0" width="14.27" height="53.88"/>
	<path class="st0" d="M732.84,153.61c-9.86-8.72-28.18-4.31-33.82,7.32l-1.02-9.55h-12.86v53.88h14.27c0.71-9.5-2.5-30.97,4.27-38.4
		c3.77-5.67,12.86-7.81,17.58-3.12c4.76,3.24,1.64,36.56,2.48,41.53H738C736.51,196.05,742.27,159.71,732.84,153.61z"/>
	<path class="st0" d="M847.48,118.01c-54.49-30.36-100.75,49.78-47.38,81.97C854.97,229.57,901.13,151.02,847.48,118.01z
		 M851.81,175.64c-22.18,37.58-76.34,3.88-55.79-33.31C818.26,104.39,872.33,138.35,851.81,175.64z"/>
	<path class="st0" d="M926.32,153.61c-9.83-8.74-27.68-4.18-33.69,6.94V105.9h-14.01v99.35h14.27v-23.95
		c-1.18-12.04,10.97-26.19,21.85-17.58c4.76,3.24,1.64,36.56,2.48,41.53h14.27C930,196.05,935.75,159.71,926.32,153.61z"/>
	<path class="st0" d="M954.72,126.73c-6.85-7.07-19.3,3.89-11.27,10.76C950.41,144.35,962.58,133.8,954.72,126.73z"/>
	<rect x="941.54" y="151.38" class="st0" width="14.27" height="53.88"/>
	<path class="st0" d="M1017.84,163.03c-20.29-32.18-71.91-4.71-52.54,30.06C985.96,224.15,1036.55,197.85,1017.84,163.03z
		 M1002.62,190.1c-15.83,15.88-36.28-9.35-22.35-24.39C996.22,149.27,1016.41,175.24,1002.62,190.1z"/>
</g>
</svg>
